<svg xmlns="http://www.w3.org/2000/svg" xmlns:xlink="http://www.w3.org/1999/xlink" version="1.1" x="0px" y="0px" viewBox="0 0 24 24" style="enable-background:new 0 0 24 24;" xml:space="preserve" preserveAspectRatio="none" width="100%" height="100%" class="" fill="#1CBFC0"><path d="M5.1842651,16H5c-0.5522461,0-1,0.4472656-1,1s0.4477539,1,1,1h0.1843262C5.5984497,19.161499,6.6980591,20,8,20  s2.4016113-0.838501,2.8157349-2h2.3685913C13.5984497,19.161499,14.6980591,20,16,20  c1.3076782,0,2.4108276-0.8461304,2.8206177-2.015625c1.1932373-0.079895,2.1885376-0.9144897,2.451355-2.0976563  l1.2446289-5.6025391c0.1787109-0.8027344-0.0141602-1.6318359-0.5292969-2.2734375C21.472168,7.3681641,20.7050781,7,19.8818359,7  H18.574707c-0.1003418-0.3739624-0.2807007-0.7266235-0.5361328-1.0322266C17.5244141,5.3525391,16.7695313,5,15.9677734,5H6  C5.4477539,5,5,5.4472656,5,6s0.4477539,1,1,1h9.9677734c0.2841797,0,0.4580078,0.1572266,0.5366211,0.2509766  c0.078125,0.09375,0.2016602,0.2919922,0.1518555,0.5703125l-1.1339722,6.2269897  C14.4328613,14.2244263,13.5463257,14.984436,13.1842651,16h-2.3685303C10.4016113,14.838501,9.3019409,14,8,14  S5.5983887,14.838501,5.1842651,16z M20.4272461,9.2617188c0.0786133,0.0976563,0.2001953,0.3037109,0.137207,0.5888672  l-1.2446289,5.6025391c-0.0582275,0.2613525-0.2563477,0.4512939-0.5042725,0.5164795  c-0.2426147-0.6555176-0.7125854-1.2089233-1.3255615-1.5636597L18.4745483,9h1.4072876  C20.1738281,9,20.3486328,9.1640625,20.4272461,9.2617188z M16,16c0.0634766,0,0.1274414,0.0048828,0.1704102,0.0117188  C16.6508789,16.1054688,17,16.5205078,17,17c0,0.5517578-0.4487305,1-1,1s-1-0.4482422-1-1S15.4487305,16,16,16z M8,16  c0.5512695,0,1,0.4482422,1,1s-0.4487305,1-1,1s-1-0.4482422-1-1S7.4487305,16,8,16z"></path><path d="M4,11h4c0.5522461,0,1-0.4472656,1-1S8.5522461,9,8,9H4c-0.5522461,0-1,0.4472656-1,1S3.4477539,11,4,11z"></path><path d="M2,14h3c0.5522461,0,1-0.4472656,1-1s-0.4477539-1-1-1H2c-0.5522461,0-1,0.4472656-1,1S1.4477539,14,2,14z"></path><circle cx="3" cy="6" r="1"></circle><circle cx="2" cy="17" r="1"></circle></svg>