<svg fill="#FACE15" font-size="16px" viewBox="0 0 48 48" xmlns="http://www.w3.org/2000/svg" width="1em" height="1em" style="margin-top: -2px;"><path d="M22.63 4.82c.45-1.1 2-1.1 2.46 0l4.8 11.55c.2.46.63.78 1.13.82l12.47 1c1.18.1 1.66 1.57.76 2.34l-9.5 8.14c-.38.32-.55.83-.43 1.32l2.9 12.17a1.33 1.33 0 0 1-1.99 1.45l-10.68-6.52a1.33 1.33 0 0 0-1.39 0L12.5 43.6a1.33 1.33 0 0 1-2-1.45l2.9-12.17c.12-.49-.04-1-.42-1.32l-9.5-8.14c-.9-.77-.42-2.25.76-2.34l12.47-1c.5-.04.93-.36 1.12-.82l4.8-11.55Z"></path></svg>