<svg xmlns="http://www.w3.org/2000/svg" xmlns:xlink="http://www.w3.org/1999/xlink" version="1.1" x="0px" y="0px" viewBox="0 0 66 66" style="enable-background:new 0 0 66 66;" xml:space="preserve" preserveAspectRatio="none" width="100%" height="100%" class="" fill="rgba(156, 113, 49, 1)"><g><path d="M43.4,50.4h-3.1h0c-1.2,0-2.7-2-3.4-6.3c1.3-0.2,2.3-1.4,2.3-2.7v-1.2c-1.7,0.6-3.5,0.9-5.3,1c-0.3,0-0.6,0-0.9,0   c-2.1,0-4.2-0.3-6.1-1v1.2c0,1.4,1,2.5,2.3,2.7c-0.7,4.3-2.2,6.3-3.4,6.3h-3.1c-2.8,0-5,2.3-5,5v8.7c0,0.6,0.4,1,1,1h28.8   c0.5,0,1-0.4,1-1v-8.7C48.4,52.7,46.1,50.4,43.4,50.4z"></path><path d="M58.5,8.9h-8.3V6.9c0.8,0,1.6-0.3,2.1-0.9c0.5-0.5,0.9-1.3,0.9-2.1c0-1.7-1.3-3-3-3H15.8c-1.7,0-3,1.3-3,3c0,1.6,1.3,3,3,3   h0v2.1H7.5c-0.5,0-1,0.5-1,1c0.3,12.4,5.8,21.6,14.3,24.2c3.1,3.1,7.4,5.1,12.2,5.1c0.3,0,0.5,0,0.8,0c4.4-0.2,8.3-2.1,11.2-5   c8.7-2.5,14.2-11.8,14.5-24.3C59.5,9.4,59,8.9,58.5,8.9z M8.5,10.9h7.3v11.2c0,3.2,0.9,6.2,2.4,8.8C12.6,27.5,9,20.3,8.5,10.9z    M47.5,31c4-6.5,2.2-11.9,2.6-20.1h7.3C57,20.4,53.3,27.7,47.5,31z"></path></g></svg>